<svg width="14" height="14" viewBox="0 0 14 14" fill="none" xmlns="http://www.w3.org/2000/svg">
<path d="M11.9998 -0.000976562C13.0935 -0.000976562 13.9998 0.905273 13.9998 1.99902V11.999C13.9998 13.124 13.0935 13.999 11.9998 13.999H1.99976C0.874756 13.999 -0.000244141 13.124 -0.000244141 11.999V1.99902C-0.000244141 0.905273 0.874756 -0.000976562 1.99976 -0.000976562H11.9998ZM10.5935 5.62402C10.9373 5.28027 10.9373 4.74902 10.5935 4.40527C10.2498 4.06152 9.71851 4.06152 9.37476 4.40527L5.99976 7.78027L4.59351 6.40527C4.24976 6.06152 3.71851 6.06152 3.37476 6.40527C3.03101 6.74902 3.03101 7.28027 3.37476 7.62402L5.37476 9.62402C5.71851 9.96777 6.24976 9.96777 6.59351 9.62402L10.5935 5.62402Z" fill="#83CD20"/>
</svg>
