<svg width="40" height="34" viewBox="0 0 40 34" fill="none" xmlns="http://www.w3.org/2000/svg">
<g clip-path="url(#clip0_0_4126)">
<path d="M18.0942 33.3334C14.8633 33.3334 11.7049 32.3754 9.01855 30.5804C6.33216 28.7854 4.23838 26.2341 3.00197 23.2492C1.76556 20.2642 1.44206 16.9797 2.07238 13.8108C2.70269 10.642 4.25851 7.73131 6.5431 5.44672C8.82768 3.16214 11.7384 1.60632 14.9072 0.976002C18.076 0.345687 21.3606 0.669187 24.3455 1.90559C27.3305 3.142 29.8818 5.23579 31.6768 7.92217C33.4717 10.6086 34.4298 13.7669 34.4298 16.9978C34.425 21.3288 32.7024 25.4811 29.6399 28.5435C26.5774 31.606 22.4252 33.3287 18.0942 33.3334Z" fill="#83CD20"/>
<path d="M18.0941 32.3378C21.1281 32.3378 24.094 31.4382 26.6166 29.7526C29.1393 28.067 31.1055 25.6712 32.2665 22.8682C33.4276 20.0651 33.7313 16.9808 33.1395 14.0051C32.5476 11.0294 31.0865 8.29607 28.9412 6.15072C26.7959 4.00538 24.0625 2.54438 21.0868 1.95248C18.1112 1.36058 15.0268 1.66436 12.2238 2.82541C9.42074 3.98647 7.02494 5.95264 5.33936 8.4753C3.65377 10.998 2.75409 13.9638 2.75409 16.9978C2.75888 21.0647 4.3766 24.9638 7.25238 27.8396C10.1282 30.7153 14.0272 32.333 18.0941 32.3378Z" fill="white"/>
<path d="M38.2725 11.2023C38.0139 11.1066 37.3261 10.2946 34.2358 10.5532C33.2014 10.6412 30.2043 11.5876 26.4158 12.7694L17.5459 9.19043L14.872 9.47489L22.0015 14.1478C19.5319 14.908 16.933 15.6812 14.4272 16.3536L9.21125 12.7332L7.76569 13.1263L12.1825 18.7689L10.9077 21.4118L12.7566 21.192L13.9824 19.4206C17.4593 19.3096 20.9201 18.8987 24.3263 18.1922L22.5937 25.1744L24.784 24.2331L28.1769 17.357C38.8647 14.802 39.7853 12.847 39.987 12.3014C40.2043 11.6807 38.5337 11.3006 38.2725 11.2023Z" fill="#83CD20"/>
<path d="M4.25134 27.9908L22.0067 24.7583L22.3429 22.811L4.25134 27.9908Z" fill="#83CD20"/>
<path d="M2.22656 25.26L22.692 21.1819L23.1058 19.1079L2.22656 25.26Z" fill="#83CD20"/>
<path d="M10.5482 20.5898L1.02661 22.55L11.1456 19.4028L10.5482 20.5898Z" fill="#83CD20"/>
<path d="M10.6077 17.776L0.437012 20.0594L9.88361 16.9536L10.6077 17.776Z" fill="#83CD20"/>
<path d="M9.04577 15.4822L0 17.5716L8.3217 14.6572L9.04577 15.4822Z" fill="#83CD20"/>
</g>
<defs>
<clipPath id="clip0_0_4126">
<rect width="40" height="32.6713" fill="white" transform="translate(0 0.664551)"/>
</clipPath>
</defs>
</svg>
